# Blender v2.91.0 OBJ File: 'Ball.blend'
# www.blender.org
mtllib Ball.mtl
o Cube
v 0.555275 0.555275 -0.555275
v 0.555275 -0.555275 -0.555275
v 0.555275 0.555275 0.555275
v 0.555275 -0.555275 0.555275
v -0.555275 0.555275 -0.555275
v -0.555275 -0.555275 -0.555275
v -0.555275 0.555275 0.555275
v -0.555275 -0.555275 0.555275
v -0.666456 -0.666456 0.000000
v 0.000000 -0.666456 -0.666456
v 0.666456 0.000000 -0.666456
v -0.666456 0.000000 0.666456
v 0.666456 0.000000 0.666456
v -0.666456 0.000000 -0.666456
v 0.000000 0.666456 0.666456
v 0.666456 0.666456 0.000000
v 0.000000 -0.666456 0.666456
v -0.666456 0.666456 0.000000
v 0.000000 0.666456 -0.666456
v 0.666456 -0.666456 0.000000
v 0.000000 0.000000 -1.000000
v 1.000000 0.000000 0.000000
v 0.000000 -1.000000 0.000000
v -1.000000 0.000000 0.000000
v 0.000000 0.000000 1.000000
v 0.000000 1.000000 0.000000
vt 0.750000 0.625000
vt 0.875000 0.750000
vt 0.750000 0.750000
vt 0.500000 0.875000
vt 0.625000 1.000000
vt 0.500000 1.000000
vt 0.500000 0.125000
vt 0.625000 0.250000
vt 0.500000 0.250000
vt 0.250000 0.625000
vt 0.375000 0.750000
vt 0.250000 0.750000
vt 0.500000 0.625000
vt 0.625000 0.750000
vt 0.500000 0.750000
vt 0.500000 0.375000
vt 0.625000 0.500000
vt 0.500000 0.500000
vt 0.375000 0.500000
vt 0.375000 0.375000
vt 0.375000 0.250000
vt 0.375000 0.625000
vt 0.125000 0.750000
vt 0.125000 0.625000
vt 0.125000 0.500000
vt 0.250000 0.500000
vt 0.375000 0.125000
vt 0.375000 0.000000
vt 0.625000 0.000000
vt 0.500000 0.000000
vt 0.375000 1.000000
vt 0.375000 0.875000
vt 0.625000 0.625000
vt 0.875000 0.500000
vt 0.750000 0.500000
vt 0.875000 0.625000
vt 0.625000 0.875000
vt 0.625000 0.125000
vt 0.625000 0.375000
vn -0.2595 0.8636 0.4322
vn -0.4322 0.2595 0.8636
vn -0.8636 0.2595 -0.4322
vn 0.2595 -0.8636 0.4322
vn 0.8636 0.2595 0.4322
vn 0.4322 0.2595 -0.8636
vn 0.2595 -0.4322 -0.8636
vn -0.2595 -0.4322 -0.8636
vn -0.4322 0.2595 -0.8636
vn 0.8636 -0.4322 0.2595
vn 0.8636 -0.4322 -0.2595
vn 0.8636 0.2595 -0.4322
vn -0.4322 -0.8636 0.2595
vn -0.4322 -0.8636 -0.2595
vn 0.2595 -0.8636 -0.4322
vn -0.8636 -0.4322 -0.2595
vn -0.8636 -0.4322 0.2595
vn -0.8636 0.2595 0.4322
vn -0.2595 -0.4322 0.8636
vn 0.2595 -0.4322 0.8636
vn 0.4322 0.2595 0.8636
vn 0.4322 0.8636 0.2595
vn 0.4322 0.8636 -0.2595
vn -0.2595 0.8636 -0.4322
vn -0.4322 0.8636 0.2595
vn -0.2595 0.4322 0.8636
vn -0.8636 0.4322 -0.2595
vn 0.4322 -0.8636 0.2595
vn 0.8636 0.4322 0.2595
vn 0.2595 0.4322 -0.8636
vn 0.4322 -0.2595 -0.8636
vn -0.4322 -0.2595 -0.8636
vn -0.2595 0.4322 -0.8636
vn 0.8636 -0.2595 0.4322
vn 0.8636 -0.2595 -0.4322
vn 0.8636 0.4322 -0.2595
vn -0.2595 -0.8636 0.4322
vn -0.2595 -0.8636 -0.4322
vn 0.4322 -0.8636 -0.2595
vn -0.8636 -0.2595 -0.4322
vn -0.8636 -0.2595 0.4322
vn -0.8636 0.4322 0.2595
vn -0.4322 -0.2595 0.8636
vn 0.4322 -0.2595 0.8636
vn 0.2595 0.4322 0.8636
vn 0.2595 0.8636 0.4322
vn 0.2595 0.8636 -0.4322
vn -0.4322 0.8636 -0.2595
usemtl Material
s off
f 26/1/1 7/2/1 15/3/1
f 25/4/2 7/5/2 12/6/2
f 24/7/3 5/8/3 14/9/3
f 23/10/4 4/11/4 17/12/4
f 22/13/5 3/14/5 13/15/5
f 21/16/6 1/17/6 11/18/6
f 21/16/7 2/19/7 10/20/7
f 6/21/8 21/16/8 10/20/8
f 5/8/9 21/16/9 14/9/9
f 22/13/10 4/11/10 20/22/10
f 2/19/11 22/13/11 20/22/11
f 1/17/12 22/13/12 11/18/12
f 23/10/13 8/23/13 9/24/13
f 6/25/14 23/10/14 9/24/14
f 2/19/15 23/10/15 10/26/15
f 24/7/16 6/21/16 9/27/16
f 8/28/17 24/7/17 9/27/17
f 7/29/18 24/7/18 12/30/18
f 25/4/19 8/31/19 17/32/19
f 4/11/20 25/4/20 17/32/20
f 3/14/21 25/4/21 13/15/21
f 26/1/22 3/14/22 16/33/22
f 1/17/23 26/1/23 16/33/23
f 5/34/24 26/1/24 19/35/24
f 26/1/25 18/36/25 7/2/25
f 25/4/26 15/37/26 7/5/26
f 24/7/27 18/38/27 5/8/27
f 23/10/28 20/22/28 4/11/28
f 22/13/29 16/33/29 3/14/29
f 21/16/30 19/39/30 1/17/30
f 21/16/31 11/18/31 2/19/31
f 6/21/32 14/9/32 21/16/32
f 5/8/33 19/39/33 21/16/33
f 22/13/34 13/15/34 4/11/34
f 2/19/35 11/18/35 22/13/35
f 1/17/36 16/33/36 22/13/36
f 23/10/37 17/12/37 8/23/37
f 6/25/38 10/26/38 23/10/38
f 2/19/39 20/22/39 23/10/39
f 24/7/40 14/9/40 6/21/40
f 8/28/41 12/30/41 24/7/41
f 7/29/42 18/38/42 24/7/42
f 25/4/43 12/6/43 8/31/43
f 4/11/44 13/15/44 25/4/44
f 3/14/45 15/37/45 25/4/45
f 26/1/46 15/3/46 3/14/46
f 1/17/47 19/35/47 26/1/47
f 5/34/48 18/36/48 26/1/48
