# Blender v2.91.0 OBJ File: 'CubeTopBevel.blend'
# www.blender.org
mtllib CubeTopBevel.mtl
o Cube
v 1.000000 -1.000000 -1.000000
v 1.000000 -1.000000 1.000000
v -1.000000 -1.000000 -1.000000
v -1.000000 -1.000000 1.000000
v 0.599871 1.000000 -0.599871
v 1.000000 0.599871 -1.000000
v 0.599871 1.000000 0.599871
v 1.000000 0.599871 1.000000
v -0.599871 1.000000 -0.599871
v -1.000000 0.599871 -1.000000
v -0.599871 1.000000 0.599871
v -1.000000 0.599871 1.000000
vt 0.574984 0.750000
vt 0.375000 1.000000
vt 0.375000 0.750000
vt 0.574984 0.000000
vt 0.375000 0.250000
vt 0.375000 0.000000
vt 0.574984 1.000000
vt 0.375000 0.500000
vt 0.125000 0.750000
vt 0.125000 0.500000
vt 0.824984 0.550016
vt 0.675016 0.699984
vt 0.675016 0.550016
vt 0.574984 0.500000
vt 0.824984 0.699984
vt 0.625000 0.750000
vt 0.875000 0.750000
vt 0.875000 0.500000
vt 0.574984 0.250000
vt 0.625000 0.500000
vn 0.0000 0.0000 1.0000
vn -1.0000 0.0000 0.0000
vn 0.0000 -1.0000 0.0000
vn 0.0000 1.0000 0.0000
vn 1.0000 0.0000 0.0000
vn 0.0000 0.7071 0.7071
vn 0.7071 0.7071 0.0000
vn -0.7071 0.7071 0.0000
vn 0.0000 0.7071 -0.7071
vn 0.0000 0.0000 -1.0000
usemtl Material
s off
f 8/1/1 4/2/1 2/3/1
f 12/4/2 3/5/2 4/6/2
f 8/1/1 12/7/1 4/2/1
f 1/8/3 4/9/3 3/10/3
f 9/11/4 7/12/4 5/13/4
f 6/14/5 2/3/5 1/8/5
f 11/15/6 8/16/6 7/12/6
f 7/12/7 6/14/7 5/13/7
f 9/11/8 12/17/8 11/15/8
f 5/13/9 10/18/9 9/11/9
f 10/19/10 1/8/10 3/5/10
f 12/4/2 10/19/2 3/5/2
f 1/8/3 2/3/3 4/9/3
f 9/11/4 11/15/4 7/12/4
f 6/14/5 8/1/5 2/3/5
f 11/15/6 12/17/6 8/16/6
f 7/12/7 8/1/7 6/14/7
f 9/11/8 10/18/8 12/17/8
f 5/13/9 6/20/9 10/18/9
f 10/19/10 6/14/10 1/8/10
