# Blender v2.91.0 OBJ File: 'Test.blend'
# www.blender.org
mtllib Test.mtl
o Cube
v 0.573290 1.000000 -0.573290
v 0.396856 -0.396856 -0.396856
v 0.573290 1.000000 0.573290
v 0.396856 -0.396856 0.396856
v -0.573290 1.000000 -0.573290
v -0.396856 -0.396856 -0.396856
v -0.573290 1.000000 0.573290
v -0.396856 -0.396856 0.396856
v 1.000000 1.000000 1.000000
v -1.000000 1.000000 1.000000
v 1.000000 1.000000 -1.000000
v -1.000000 1.000000 -1.000000
v 0.573290 1.388099 -0.573290
v 0.573290 1.388099 0.573290
v -0.573290 1.388099 -0.573290
v -0.573290 1.388099 0.573290
vt 0.821661 0.553339
vt 0.678339 0.553339
vt 0.678339 0.553339
vt 0.625000 0.750000
vt 0.375000 1.000000
vt 0.375000 0.750000
vt 0.625000 0.000000
vt 0.375000 0.250000
vt 0.375000 0.000000
vt 0.375000 0.500000
vt 0.125000 0.750000
vt 0.125000 0.500000
vt 0.625000 0.500000
vt 0.625000 0.250000
vt 0.678339 0.696661
vt 0.875000 0.750000
vt 0.821661 0.696661
vt 0.875000 0.500000
vt 0.821661 0.553339
vt 0.678339 0.696661
vt 0.821661 0.696661
vt 0.625000 1.000000
vn 0.0000 0.0000 -1.0000
vn 0.0000 -0.3964 0.9181
vn -0.9181 -0.3964 0.0000
vn 0.0000 -1.0000 0.0000
vn 0.9181 -0.3964 0.0000
vn 0.0000 -0.3964 -0.9181
vn 0.0000 1.0000 0.0000
vn 1.0000 0.0000 0.0000
vn -1.0000 0.0000 0.0000
vn 0.0000 0.0000 1.0000
usemtl Material
s off
f 5/1/1 13/2/1 1/3/1
f 9/4/2 8/5/2 4/6/2
f 10/7/3 6/8/3 8/9/3
f 2/10/4 8/11/4 6/12/4
f 11/13/5 4/6/5 2/10/5
f 12/14/6 2/10/6 6/8/6
f 3/15/7 10/16/7 9/4/7
f 1/3/7 9/4/7 11/13/7
f 7/17/7 12/18/7 10/16/7
f 5/1/7 11/13/7 12/18/7
f 15/19/7 14/20/7 13/2/7
f 1/3/8 14/20/8 3/15/8
f 7/17/9 15/19/9 5/1/9
f 3/15/10 16/21/10 7/17/10
f 5/1/1 15/19/1 13/2/1
f 9/4/2 10/22/2 8/5/2
f 10/7/3 12/14/3 6/8/3
f 2/10/4 4/6/4 8/11/4
f 11/13/5 9/4/5 4/6/5
f 12/14/6 11/13/6 2/10/6
f 3/15/7 7/17/7 10/16/7
f 1/3/7 3/15/7 9/4/7
f 7/17/7 5/1/7 12/18/7
f 5/1/7 1/3/7 11/13/7
f 15/19/7 16/21/7 14/20/7
f 1/3/8 13/2/8 14/20/8
f 7/17/9 16/21/9 15/19/9
f 3/15/10 14/20/10 16/21/10
